<?xml version="1.0" standalone="no"?>
<!DOCTYPE svg PUBLIC "-//W3C//DTD SVG 20010904//EN"
 "http://www.w3.org/TR/2001/REC-SVG-20010904/DTD/svg10.dtd">
<svg version="1.0" xmlns="http://www.w3.org/2000/svg"
 width="512.000000pt" height="512.000000pt" viewBox="0 0 512.000000 512.000000"
 preserveAspectRatio="xMidYMid meet">
<metadata>
Created by potrace 1.14, written by Peter Selinger 2001-2017
</metadata>
<g transform="translate(0.000000,512.000000) scale(0.100000,-0.100000)"
fill="#000000" stroke="none">
<path d="M1978 5115 c-1 -1 -34 -5 -73 -9 -108 -10 -181 -24 -369 -71 -34 -8
-120 -37 -151 -50 -16 -7 -39 -16 -50 -21 -11 -4 -22 -8 -25 -9 -3 -2 -15 -6
-27 -10 -13 -4 -23 -12 -23 -17 0 -5 -4 -7 -9 -4 -4 3 -41 -13 -82 -35 -41
-22 -82 -42 -91 -46 -10 -3 -18 -9 -18 -14 0 -5 -5 -9 -11 -9 -6 0 -30 -13
-54 -30 -24 -16 -48 -30 -54 -30 -6 0 -11 -4 -11 -8 0 -4 -20 -21 -45 -36 -25
-16 -45 -32 -45 -37 0 -4 -8 -10 -18 -13 -10 -3 -39 -26 -65 -51 -26 -24 -47
-42 -47 -40 0 5 -116 -111 -188 -188 -23 -26 -42 -50 -42 -54 0 -5 -8 -16 -17
-25 -19 -16 -60 -68 -78 -98 -5 -9 -19 -31 -30 -50 -11 -18 -28 -41 -37 -52
-10 -10 -18 -19 -17 -20 3 -8 -26 -58 -33 -58 -4 0 -8 -3 -7 -7 2 -16 -14 -53
-22 -53 -5 0 -8 -3 -7 -7 1 -5 -13 -39 -31 -78 -45 -96 -70 -154 -77 -180 -1
-5 -9 -29 -18 -52 -8 -24 -13 -43 -9 -43 3 0 1 -6 -4 -12 -10 -13 -22 -55 -48
-170 -3 -13 -7 -38 -10 -55 -5 -40 -13 -88 -21 -128 -9 -47 -12 -432 -3 -478
4 -23 10 -64 13 -92 3 -27 8 -61 11 -75 3 -14 8 -38 11 -55 16 -87 87 -320
105 -341 5 -6 6 -14 2 -17 -3 -4 -2 -7 3 -7 5 0 11 -10 11 -22 1 -13 7 -24 13
-26 5 -2 10 -7 10 -12 0 -5 10 -30 22 -57 12 -26 21 -51 20 -55 -1 -5 2 -8 6
-8 5 0 14 -16 22 -35 8 -19 17 -35 22 -35 4 0 8 -5 8 -10 0 -11 122 -201 143
-222 7 -7 20 -23 29 -36 22 -33 146 -169 192 -211 91 -85 102 -94 188 -164 25
-20 51 -37 57 -37 6 0 11 -4 11 -10 0 -5 7 -10 15 -10 8 0 15 -4 15 -10 0 -5
7 -10 15 -10 8 0 15 -4 15 -10 0 -5 7 -10 15 -10 8 0 15 -4 15 -10 0 -5 6 -10
14 -10 8 0 16 -3 18 -7 2 -5 33 -24 71 -43 37 -19 67 -38 67 -42 0 -5 7 -8 15
-8 8 0 23 -4 33 -9 9 -5 35 -18 58 -30 23 -11 44 -18 48 -14 3 3 6 2 6 -4 0
-5 6 -10 13 -10 6 -1 44 -13 82 -27 74 -28 200 -65 244 -72 14 -3 49 -9 76
-14 28 -6 59 -12 70 -14 162 -31 533 -24 695 13 25 5 61 13 80 16 42 7 109 24
130 32 8 3 24 8 35 10 35 8 51 13 115 40 8 3 24 8 35 10 10 2 22 8 26 14 3 6
10 11 15 11 11 1 32 7 59 17 11 5 24 9 29 9 5 0 12 4 15 9 6 9 50 30 65 31 5
0 12 5 15 10 3 5 29 21 56 36 28 15 74 42 104 61 l54 34 12 -22 c7 -12 26 -46
43 -75 18 -29 32 -54 32 -56 0 -2 17 -33 38 -67 21 -35 44 -76 51 -91 8 -16
18 -28 23 -28 4 0 8 -6 8 -14 0 -8 18 -42 40 -75 22 -33 40 -65 40 -71 0 -5 4
-10 8 -10 5 0 14 -16 22 -35 8 -19 17 -35 22 -35 4 0 8 -7 8 -15 0 -8 5 -15
10 -15 6 0 10 -4 10 -9 0 -12 61 -105 72 -109 4 -2 8 -8 8 -14 0 -8 89 -143
123 -185 31 -39 107 -113 116 -113 6 0 15 -9 21 -20 6 -11 17 -20 25 -20 8 0
15 -4 15 -10 0 -5 4 -10 10 -10 5 0 33 -14 62 -31 29 -17 59 -32 68 -34 8 -2
29 -9 45 -15 64 -25 143 -41 227 -45 84 -5 89 -3 153 29 70 37 103 60 165 118
22 20 40 35 40 33 0 -3 10 6 23 18 13 12 22 25 20 28 -1 3 8 12 21 18 12 7 30
25 39 39 9 15 30 41 47 59 16 18 30 35 30 38 0 4 11 21 24 38 13 18 31 54 40
81 41 122 -33 388 -153 546 -46 62 -133 149 -148 150 -7 0 -13 4 -13 8 0 4
-18 19 -40 32 -22 14 -40 28 -40 31 0 4 -13 12 -30 19 -16 7 -30 16 -30 20 0
4 -13 13 -30 20 -16 7 -30 16 -30 21 0 5 -11 11 -25 15 -14 3 -25 10 -25 15 0
5 -7 9 -15 9 -8 0 -15 3 -15 8 0 4 -19 16 -41 27 -23 10 -44 25 -46 32 -3 7
-12 13 -21 13 -8 0 -23 6 -31 14 -9 7 -68 43 -131 80 -63 37 -122 71 -130 76
-8 5 -61 35 -117 67 -57 32 -103 61 -103 65 0 4 20 39 45 77 25 38 45 74 45
79 0 6 4 12 8 14 4 2 25 39 47 83 22 44 42 82 45 85 3 3 5 10 6 15 3 24 17 55
26 55 5 0 7 4 3 9 -3 6 4 26 15 45 13 25 16 36 7 36 -8 0 -8 3 -1 8 16 11 62
154 80 245 2 12 6 33 9 47 3 14 8 42 11 64 3 21 8 48 10 60 22 106 22 465 0
581 -2 11 -7 43 -10 70 -16 113 -112 446 -135 465 -3 3 -8 14 -9 25 -2 11 -8
22 -13 23 -5 2 -9 9 -9 15 0 15 -43 101 -52 105 -5 2 -8 11 -8 21 0 9 -9 27
-20 39 -11 12 -20 24 -20 28 0 9 -69 121 -84 137 -6 6 -26 32 -43 57 -17 25
-41 56 -52 70 -67 78 -129 146 -151 167 -82 77 -130 121 -160 143 -18 14 -42
33 -54 43 -11 10 -33 26 -48 35 -16 9 -28 20 -28 24 0 4 -7 8 -15 8 -8 0 -15
3 -15 8 0 4 -20 18 -45 31 -25 13 -45 28 -45 33 0 5 -4 7 -9 3 -5 -3 -15 1
-23 8 -19 19 -231 120 -318 152 -41 15 -91 33 -110 40 -19 7 -38 13 -42 14 -5
1 -9 1 -10 2 -2 0 -10 2 -18 4 -8 1 -44 10 -80 18 -62 15 -122 27 -165 33 -11
1 -40 5 -65 9 -47 7 -406 16 -412 10z"/>
</g>
</svg>
