<svg xmlns="http://www.w3.org/2000/svg" viewBox="0 0 600 600" width="100%" height="100%" style="background-color: transparent; border-radius: 12px; font-family: -apple-system, BlinkMacSystemFont, sans-serif;">\n<defs><radialGradient id="glow" cx="50%" cy="50%" r="50%">\n<stop offset="0%" stop-color="#6eb4ff" stop-opacity="0.5" />\n<stop offset="100%" stop-color="#6eb4ff" stop-opacity="0" />\n</radialGradient></defs>\n<circle cx="300" cy="300" r="258" fill="none" stroke="rgba(140, 190, 255, 0.4)" stroke-width="1.2" />\n<circle cx="300" cy="300" r="170.28" fill="none" stroke="rgba(140, 190, 255, 0.2)" stroke-width="0.8" stroke-dasharray="4 7" />\n<circle cx="300" cy="300" r="85.14" fill="none" stroke="rgba(140, 190, 255, 0.2)" stroke-width="0.8" stroke-dasharray="4 7" />\n<line x1="42" y1="300" x2="558" y2="300" stroke="rgba(140, 190, 255, 0.2)" stroke-width="0.8" stroke-dasharray="4 7" />\n<line x1="300" y1="42" x2="300" y2="558" stroke="rgba(140, 190, 255, 0.2)" stroke-width="0.8" stroke-dasharray="4 7" />\n<text x="300" y="22" font-size="16" font-weight="600" fill="rgba(140, 190, 255, 0.5)" text-anchor="middle" dominant-baseline="middle">N</text>\n<text x="578" y="300" font-size="16" font-weight="600" fill="rgba(140, 190, 255, 0.5)" text-anchor="middle" dominant-baseline="middle">E</text>\n<text x="300" y="578" font-size="16" font-weight="600" fill="rgba(140, 190, 255, 0.5)" text-anchor="middle" dominant-baseline="middle">S</text>\n<text x="22" y="300" font-size="16" font-weight="600" fill="rgba(140, 190, 255, 0.5)" text-anchor="middle" dominant-baseline="middle">W</text>\n<circle cx="300" cy="300" r="4" fill="rgba(140, 190, 255, 0.7)" />\n<path d="M 300 300 L 300 42 A 258 258 0 0 0 76.56544582361485 170.99999999999997 Z" fill="rgba(100, 170, 255, 0.15)" />\n<line x1="300" y1="300" x2="300" y2="42" stroke="rgba(100, 170, 255, 0.8)" stroke-width="1.5" />\n<circle cx="246.84332439428204" cy="168.43261103697287" r="22" fill="url(#glow)" />\n<g transform="translate(237.84332439428204, 159.43261103697287) scale(0.75)">\n<path d="M12 1 L9 9 L1 11 L9 13 L9 20 L11 19 L12 17 L13 19 L15 20 L15 13 L23 11 L15 9 Z" fill="#6eb4ff" />\n</g>\n<text x="230.84332439428204" y="168.43261103697287" font-size="18" font-weight="600" fill="rgba(230, 240, 255, 0.95)" text-anchor="end" dominant-baseline="middle">Aviation</text>\n<circle cx="395.7034191205168" cy="146.84251383414946" r="22" fill="url(#glow)" />\n<g transform="translate(386.7034191205168, 137.84251383414946) scale(0.75)">\n<path d="M12 2C8.13 2 5 5.13 5 9c0 5.25 7 13 7 13s7-7.75 7-13c0-3.87-3.13-7-7-7z" fill="#6eb4ff" />\n</g>\n<text x="411.7034191205168" y="146.84251383414946" font-size="18" font-weight="600" fill="rgba(230, 240, 255, 0.95)" text-anchor="start" dominant-baseline="middle">Trip</text>\n<circle cx="431.2282821144474" cy="327.8934324401106" r="22" fill="url(#glow)" />\n<g transform="translate(422.2282821144474, 318.8934324401106) scale(0.75)">\n<path d="M20 3H4C2.9 3 2 3.9 2 5v10c0 1.1.9 2 2 2h5v2H8v2h8v-2h-1v-2h5c1.1 0 2-.9 2-2V5c0-1.1-.9-2-2-2zm0 12H4V5h16v10z" fill="#6eb4ff" />\n</g>\n<text x="447.2282821144474" y="327.8934324401106" font-size="18" font-weight="600" fill="rgba(230, 240, 255, 0.95)" text-anchor="start" dominant-baseline="middle">HCI</text>\n<circle cx="376.3079078152187" cy="443.51430174329" r="22" fill="url(#glow)" />\n<g transform="translate(367.3079078152187, 434.51430174329) scale(0.75)">\n<path d="M13 2L6 14h5v8l7-12h-5z" fill="#6eb4ff" />\n</g>\n<text x="392.3079078152187" y="443.51430174329" font-size="18" font-weight="600" fill="rgba(230, 240, 255, 0.95)" text-anchor="start" dominant-baseline="middle">Productivity</text>\n<circle cx="224.90332881676895" cy="441.236296953714" r="22" fill="url(#glow)" />\n<g transform="translate(215.90332881676895, 432.236296953714) scale(0.75)">\n<path d="M12 12c2.21 0 4-1.79 4-4s-1.79-4-4-4-4 1.79-4 4 1.79 4 4 4zm0 2c-2.67 0-8 1.34-8 4v2h16v-2c0-2.66-5.33-4-8-4z" fill="#6eb4ff" />\n</g>\n<text x="208.90332881676895" y="441.236296953714" font-size="18" font-weight="600" fill="rgba(230, 240, 255, 0.95)" text-anchor="end" dominant-baseline="middle">Human</text>\n<circle cx="159.2230130398292" cy="332.5009283316016" r="22" fill="url(#glow)" />\n<g transform="translate(150.2230130398292, 323.5009283316016) scale(0.75)">\n<path d="M20 2H4c-1.1 0-2 .9-2 2v18l4-4h14c1.1 0 2-.9 2-2V4c0-1.1-.9-2-2-2z" fill="#6eb4ff" />\n</g>\n<text x="143.2230130398292" y="332.5009283316016" font-size="18" font-weight="600" fill="rgba(230, 240, 255, 0.95)" text-anchor="end" dominant-baseline="middle">Language</text>\n<circle cx="197.96889986411855" cy="250.23610741650396" r="22" fill="url(#glow)" />\n<g transform="translate(188.96889986411855, 241.23610741650396) scale(0.75)">\n<path d="M12 3v10.55A4 4 0 1 0 14 17V7h4V3h-6z" fill="#6eb4ff" />\n</g>\n<text x="181.96889986411855" y="250.23610741650396" font-size="18" font-weight="600" fill="rgba(230, 240, 255, 0.95)" text-anchor="end" dominant-baseline="middle">Music</text>\n<circle cx="443.5280606869387" cy="242.01089933921682" r="22" fill="url(#glow)" />\n<g transform="translate(434.5280606869387, 233.01089933921682) scale(0.75)">\n<path d="M3 17.25V21h3.75L17.81 9.94l-3.75-3.75L3 17.25zM20.71 7.04a1 1 0 0 0 0-1.41l-2.34-2.34a1 1 0 0 0-1.41 0l-1.83 1.83 3.75 3.75 1.83-1.83z" fill="#6eb4ff" />\n</g>\n<text x="459.5280606869387" y="242.01089933921682" font-size="18" font-weight="600" fill="rgba(230, 240, 255, 0.95)" text-anchor="start" dominant-baseline="middle">Journal</text>\n</svg>